<svg width="1200" height="1200" viewBox="0 0 1200 1200" xmlns="http://www.w3.org/2000/svg">
  <defs>
    <linearGradient id="gradient" x1="0%" y1="0%" x2="100%" y2="100%">
      <stop offset="0%" stop-color="#4158D0" />
      <stop offset="50%" stop-color="#C850C0" />
      <stop offset="100%" stop-color="#6C43D0" />
    </linearGradient>
  </defs>
  <path d="M0,192L48,202.7C96,213,192,235,288,229.3C384,224,480,192,576,181.3C672,171,768,181,864,192C960,203,1056,213,1152,208C1248,203,1344,181,1392,170.7L1440,160L1440,320L1392,320C1344,320,1248,320,1152,320C1056,320,960,320,864,320C768,320,672,320,576,320C480,320,384,320,288,320C192,320,96,320,48,320L0,320Z" 
        fill="url(#gradient)" 
        transform="scale(1.5) translate(-100, 100)" 
        opacity="0.7">
    <animate attributeName="d" 
             dur="20s" 
             repeatCount="indefinite" 
             values="
             M0,192L48,202.7C96,213,192,235,288,229.3C384,224,480,192,576,181.3C672,171,768,181,864,192C960,203,1056,213,1152,208C1248,203,1344,181,1392,170.7L1440,160L1440,320L1392,320C1344,320,1248,320,1152,320C1056,320,960,320,864,320C768,320,672,320,576,320C480,320,384,320,288,320C192,320,96,320,48,320L0,320Z;
             
             M0,160L48,181.3C96,203,192,245,288,261.3C384,277,480,267,576,234.7C672,203,768,149,864,138.7C960,128,1056,160,1152,186.7C1248,213,1344,235,1392,245.3L1440,256L1440,320L1392,320C1344,320,1248,320,1152,320C1056,320,960,320,864,320C768,320,672,320,576,320C480,320,384,320,288,320C192,320,96,320,48,320L0,320Z;
             
             M0,224L48,213.3C96,203,192,181,288,154.7C384,128,480,96,576,106.7C672,117,768,171,864,197.3C960,224,1056,224,1152,213.3C1248,203,1344,181,1392,170.7L1440,160L1440,320L1392,320C1344,320,1248,320,1152,320C1056,320,960,320,864,320C768,320,672,320,576,320C480,320,384,320,288,320C192,320,96,320,48,320L0,320Z;
             
             M0,192L48,202.7C96,213,192,235,288,229.3C384,224,480,192,576,181.3C672,171,768,181,864,192C960,203,1056,213,1152,208C1248,203,1344,181,1392,170.7L1440,160L1440,320L1392,320C1344,320,1248,320,1152,320C1056,320,960,320,864,320C768,320,672,320,576,320C480,320,384,320,288,320C192,320,96,320,48,320L0,320Z"
    />
  </path>
  
  <path d="M0,224L48,213.3C96,203,192,181,288,154.7C384,128,480,96,576,106.7C672,117,768,171,864,197.3C960,224,1056,224,1152,213.3C1248,203,1344,181,1392,170.7L1440,160L1440,320L1392,320C1344,320,1248,320,1152,320C1056,320,960,320,864,320C768,320,672,320,576,320C480,320,384,320,288,320C192,320,96,320,48,320L0,320Z" 
        fill="url(#gradient)" 
        transform="scale(1.2) translate(0, 200)" 
        opacity="0.5">
    <animate attributeName="d" 
             dur="15s" 
             repeatCount="indefinite" 
             values="
             M0,224L48,213.3C96,203,192,181,288,154.7C384,128,480,96,576,106.7C672,117,768,171,864,197.3C960,224,1056,224,1152,213.3C1248,203,1344,181,1392,170.7L1440,160L1440,320L1392,320C1344,320,1248,320,1152,320C1056,320,960,320,864,320C768,320,672,320,576,320C480,320,384,320,288,320C192,320,96,320,48,320L0,320Z;
             
             M0,160L48,181.3C96,203,192,245,288,261.3C384,277,480,267,576,234.7C672,203,768,149,864,138.7C960,128,1056,160,1152,186.7C1248,213,1344,235,1392,245.3L1440,256L1440,320L1392,320C1344,320,1248,320,1152,320C1056,320,960,320,864,320C768,320,672,320,576,320C480,320,384,320,288,320C192,320,96,320,48,320L0,320Z;
             
             M0,192L48,202.7C96,213,192,235,288,229.3C384,224,480,192,576,181.3C672,171,768,181,864,192C960,203,1056,213,1152,208C1248,203,1344,181,1392,170.7L1440,160L1440,320L1392,320C1344,320,1248,320,1152,320C1056,320,960,320,864,320C768,320,672,320,576,320C480,320,384,320,288,320C192,320,96,320,48,320L0,320Z;
             
             M0,224L48,213.3C96,203,192,181,288,154.7C384,128,480,96,576,106.7C672,117,768,171,864,197.3C960,224,1056,224,1152,213.3C1248,203,1344,181,1392,170.7L1440,160L1440,320L1392,320C1344,320,1248,320,1152,320C1056,320,960,320,864,320C768,320,672,320,576,320C480,320,384,320,288,320C192,320,96,320,48,320L0,320Z"
    />
  </path>
</svg>

